<?xml version="1.0" encoding="UTF-8"?>
<svg id="Layer_1" data-name="Layer 1" xmlns="http://www.w3.org/2000/svg" viewBox="0 0 442.68 155.69">
  <defs>
    <style>
      .cls-1 {
        fill: #a6a8ab;
      }

      .cls-1, .cls-2, .cls-3, .cls-4 {
        stroke-width: 0px;
      }

      .cls-2 {
        fill: #e1503e;
      }

      .cls-3 {
        fill: #e1503e;
      }

      .cls-4 {
        fill: #fff;
      }
    </style>
  </defs>
  <g>
    <g>
      <path class="cls-3" d="M195.53,95.64h-19.21V19.63h33.86c7.6,0,13.69.92,18.25,2.76,4.56,1.84,7.84,4.84,9.85,9.01,2,4.16,3,9.81,3,16.93,0,6.72-1,12.19-3,16.39-2,4.2-5.28,7.31-9.85,9.31-4.56,2-10.65,3-18.25,3h-14.65v18.61ZM207.06,35.36h-11.53v25.94h11.53c5.68,0,9.49-.96,11.41-2.88,1.92-1.92,2.88-5.28,2.88-10.09s-.96-7.86-2.88-9.91c-1.92-2.04-5.72-3.06-11.41-3.06Z"/>
      <path class="cls-3" d="M273.7,95.64h-19.21V19.63h19.21v76Z"/>
      <path class="cls-3" d="M310.32,95.64h-19.21V19.63h36.26c9.52,0,16.47,2.14,20.83,6.42,4.36,4.28,6.54,10.59,6.54,18.91,0,6.24-1.56,11.59-4.68,16.03-3.12,4.44-7.25,7.22-12.37,8.34l-.12.36c2,1.28,4.2,3.4,6.6,6.36,2.4,2.96,4.78,6.18,7.14,9.67,2.36,3.48,4.46,6.74,6.3,9.79v.12h-22.33l-12.97-19.21c-1.12-1.68-2.02-2.88-2.7-3.6-.68-.72-1.48-1.16-2.4-1.32-.92-.16-2.38-.24-4.38-.24h-2.52v24.37ZM324.25,35.24h-13.93v20.41h13.93c4,0,6.78-.8,8.34-2.4,1.56-1.6,2.34-4.2,2.34-7.8s-.78-6.2-2.34-7.8c-1.56-1.6-4.34-2.4-8.34-2.4Z"/>
      <path class="cls-3" d="M369.15,57.57c0-9.68,1.1-17.37,3.3-23.05,2.2-5.68,6-9.77,11.41-12.25,5.4-2.48,12.95-3.72,22.63-3.72,7.28,0,13.33.68,18.13,2.04,4.8,1.36,8.6,3.56,11.41,6.6,2.8,3.04,4.78,7.07,5.94,12.07,1.16,5,1.74,11.11,1.74,18.31s-.58,13.43-1.74,18.43c-1.16,5-3.14,9.03-5.94,12.07-2.8,3.04-6.6,5.24-11.41,6.6-4.8,1.36-10.85,2.04-18.13,2.04s-13.33-.68-18.13-2.04c-4.8-1.36-8.61-3.56-11.41-6.6-2.8-3.04-4.8-7.06-6-12.07-1.2-5-1.8-11.15-1.8-18.43ZM406.49,79.91c5.12,0,8.96-.64,11.53-1.92,2.56-1.28,4.28-3.54,5.16-6.78.88-3.24,1.32-7.78,1.32-13.63s-.44-10.25-1.32-13.45c-.88-3.2-2.6-5.46-5.16-6.78-2.56-1.32-6.4-1.98-11.53-1.98s-8.87.66-11.47,1.98c-2.6,1.32-4.36,3.58-5.28,6.78-.92,3.2-1.38,7.68-1.38,13.45s.46,10.39,1.38,13.63c.92,3.24,2.68,5.5,5.28,6.78,2.6,1.28,6.42,1.92,11.47,1.92Z"/>
    </g>
    <g>
      <path class="cls-1" d="M185.51,138.06h-7.68v-30.38h22.56v6.24h-14.88v6.96h13.92v6.24h-13.92v10.94Z"/>
      <path class="cls-1" d="M250.89,107.67v17.9c0,3.14-.38,5.65-1.13,7.54-.75,1.89-2.06,3.26-3.91,4.1-1.86.85-4.48,1.27-7.87,1.27s-6.25-.42-8.18-1.27c-1.94-.85-3.29-2.21-4.06-4.1-.77-1.89-1.15-4.4-1.15-7.54v-17.9h7.68v17.76c0,1.63.16,2.91.48,3.84.32.93.9,1.58,1.73,1.94.83.37,2,.55,3.5.55,1.41,0,2.49-.18,3.24-.55.75-.37,1.27-1.01,1.56-1.94.29-.93.43-2.21.43-3.84v-17.76h7.68Z"/>
      <path class="cls-1" d="M276.47,130.23c1.41.48,2.95.86,4.63,1.13,1.68.27,3.35.41,5.02.41,2.27,0,3.96-.1,5.06-.31,1.1-.21,1.83-.54,2.18-.98.35-.45.53-1.02.53-1.73,0-.61-.13-1.09-.38-1.44-.26-.35-.75-.63-1.49-.84-.74-.21-1.82-.38-3.26-.5l-3.17-.29c-2.37-.22-4.23-.72-5.59-1.49-1.36-.77-2.32-1.8-2.88-3.1-.56-1.3-.84-2.86-.84-4.68,0-2.18.44-3.94,1.32-5.28.88-1.34,2.31-2.33,4.3-2.95,1.98-.62,4.62-.94,7.92-.94,4.29,0,7.82.56,10.61,1.68l-.14,6.53-.14.19c-3.17-1.12-6.48-1.68-9.94-1.68-1.66,0-2.94.09-3.84.26-.9.18-1.52.46-1.87.84-.35.38-.53.93-.53,1.63s.12,1.23.36,1.58c.24.35.73.62,1.46.79.74.18,1.81.34,3.22.5l3.02.34c2.56.29,4.53.8,5.9,1.54,1.38.74,2.33,1.72,2.86,2.95.53,1.23.79,2.73.79,4.49,0,2.14-.46,3.93-1.37,5.35-.91,1.42-2.39,2.49-4.44,3.19-2.05.7-4.78,1.06-8.21,1.06-2.24,0-4.26-.12-6.05-.36-1.79-.24-3.54-.57-5.23-.98v-6.77l.19-.14Z"/>
      <path class="cls-1" d="M334.65,138.06h-7.68v-30.38h7.68v30.38Z"/>
      <path class="cls-1" d="M360.04,122.84c0-3.87.44-6.94,1.32-9.22.88-2.27,2.4-3.9,4.56-4.9,2.16-.99,5.18-1.49,9.05-1.49,2.91,0,5.33.27,7.25.82,1.92.54,3.44,1.42,4.56,2.64,1.12,1.22,1.91,2.82,2.38,4.82.46,2,.7,4.44.7,7.32s-.23,5.37-.7,7.37c-.46,2-1.26,3.61-2.38,4.82-1.12,1.22-2.64,2.1-4.56,2.64-1.92.54-4.34.82-7.25.82s-5.33-.27-7.25-.82c-1.92-.54-3.44-1.42-4.56-2.64-1.12-1.22-1.92-2.82-2.4-4.82-.48-2-.72-4.46-.72-7.37ZM374.97,131.77c2.05,0,3.58-.26,4.61-.77,1.02-.51,1.71-1.42,2.06-2.71.35-1.3.53-3.11.53-5.45s-.18-4.1-.53-5.38c-.35-1.28-1.04-2.18-2.06-2.71-1.02-.53-2.56-.79-4.61-.79s-3.54.26-4.58.79c-1.04.53-1.74,1.43-2.11,2.71-.37,1.28-.55,3.07-.55,5.38s.18,4.15.55,5.45c.37,1.3,1.07,2.2,2.11,2.71,1.04.51,2.57.77,4.58.77Z"/>
      <path class="cls-1" d="M434.92,107.67h7.68v30.38h-7.63l-8.64-12.86c-.67-1.02-1.23-1.89-1.68-2.59-.45-.7-.86-1.41-1.25-2.11-.38-.7-.82-1.54-1.3-2.5l-.14.19c.45,1.54.72,2.97.82,4.3s.14,2.62.14,3.86v11.71h-7.68v-30.38h7.63l8.64,12.86c.67.99,1.23,1.85,1.68,2.57.45.72.86,1.43,1.25,2.14.38.7.82,1.54,1.3,2.5l.14-.19c-.32-1.34-.56-2.65-.72-3.91-.16-1.26-.24-2.52-.24-3.77v-12.19Z"/>
    </g>
  </g>
  <g>
    <path class="cls-2" d="M137.38,111.28V44.1c0-3.76-2-7.23-5.26-9.11L73.95,1.41c-3.25-1.88-7.26-1.88-10.51,0L5.26,35c-3.25,1.88-5.26,5.35-5.26,9.11v67.17c0,3.76,2,7.23,5.26,9.11l58.17,33.59c3.25,1.88,7.26,1.88,10.51,0l58.17-33.59c3.25-1.88,5.26-5.35,5.26-9.11Z"/>
    <path class="cls-4" d="M68.8,29.85l6.64,17.85c3.96,10.65,12.36,19.04,23,23l17.85,6.64-17.85,6.64c-10.65,3.96-19.04,12.36-23,23l-6.64,17.85-6.64-17.85c-3.96-10.65-12.36-19.04-23-23l-17.85-6.64,17.85-6.64c10.65-3.96,19.04-12.36,23-23l6.64-17.85Z"/>
    <path class="cls-2" d="M68.8,54.14l2.14,4.55c3.41,7.27,9.26,13.11,16.52,16.52l4.55,2.14-4.55,2.14c-7.27,3.41-13.11,9.26-16.52,16.52l-2.14,4.55-2.14-4.55c-3.41-7.27-9.26-13.11-16.52-16.52l-4.55-2.14,4.55-2.14c7.27-3.41,13.11-9.26,16.52-16.52l2.14-4.55Z"/>
  </g>
</svg>